PathFileType	4	(X/Y/Z)	/Users/itak/Documents/Research/Walk-IL/dataset/trc/00504_00183.trc
DataRate	CameraRate	NumFrames	NumMarkers	Units	OrigDataRate	OrigDataStartFrame	OrigNumFrames
100.000000	100.000000	4	53	mm	100.000000	89	719
Frame#	Time	RPSI			LPSI			L3			STRN			T10			C7			CLAV			RBAK			LBAK			LSHO			LUPA			LAEL			LAOL			LWTS			LWPS			LFRA			LIFD			LHPS			LHTS			RSHO			RUPA			RAEL			RAOL			RWTS			RWPS			RFRA			RIFD			RHTS			RHPS			RBHD			LFHD			RFHD			LBHD			LHIP			RHIP			RASI			LASI			LKNE			LTHI			LANK			LTIP			LTOE			LMT1			LMT5			LHEE			RKNE			RTHI			RANK			RTIP			RTOE			RMT1			RMT5			RHEE			
		X1	Y1	Z1	X2	Y2	Z2	X3	Y3	Z3	X4	Y4	Z4	X5	Y5	Z5	X6	Y6	Z6	X7	Y7	Z7	X8	Y8	Z8	X9	Y9	Z9	X10	Y10	Z10	X11	Y11	Z11	X12	Y12	Z12	X13	Y13	Z13	X14	Y14	Z14	X15	Y15	Z15	X16	Y16	Z16	X17	Y17	Z17	X18	Y18	Z18	X19	Y19	Z19	X20	Y20	Z20	X21	Y21	Z21	X22	Y22	Z22	X23	Y23	Z23	X24	Y24	Z24	X25	Y25	Z25	X26	Y26	Z26	X27	Y27	Z27	X28	Y28	Z28	X29	Y29	Z29	X30	Y30	Z30	X31	Y31	Z31	X32	Y32	Z32	X33	Y33	Z33	X34	Y34	Z34	X35	Y35	Z35	X36	Y36	Z36	X37	Y37	Z37	X38	Y38	Z38	X39	Y39	Z39	X40	Y40	Z40	X41	Y41	Z41	X42	Y42	Z42	X43	Y43	Z43	X44	Y44	Z44	X45	Y45	Z45	X46	Y46	Z46	X47	Y47	Z47	X48	Y48	Z48	X49	Y49	Z49	X50	Y50	Z50	X51	Y51	Z51	X52	Y52	Z52	X53	Y53	Z53	

90	0.89	-1195.51025390625	975.9247436523438	-392.0690307617188	-1136.474365234375	972.8775024414062	-500.7097473144531	-1180.216186523438	1032.000732421875	-453.6781616210938	-977.3453979492188	1210.40966796875	-373.7953186035156	-1200.269653320312	1138.108276367188	-456.8189392089844	-1166.838256835938	1370.37841796875	-441.9253845214844	-1014.938049316406	1303.739135742188	-388.9082336425781	-1234.119384765625	1246.244750976562	-375.3729858398438	-1157.312133789062	1315.0556640625	-531.0624389648438	-1045.511474609375	1366.39599609375	-569.8043823242188	-1031.612548828125	1239.66552734375	-629.2883911132812	-1007.130615234375	1029.954467773438	-645.1141357421875	-1097.87451171875	1019.349548339844	-607.6441040039062	-931.858642578125	846.0281982421875	-579.2885131835938	-991.6167602539062	807.994873046875	-640.0780639648438	-988.42626953125	946.88037109375	-639.8282470703125	-926.859375	689.1294555664062	-563.5552368164062	-968.8729248046875	754.0693969726562	-627.2479858398438	-913.53271484375	767.8696899414062	-592.3441772460938	-1164.861450195312	1368.223510742188	-283.2578735351562	-1196.21728515625	1299.767700195312	-233.27734375	-1181.878540039062	1031.150024414062	-189.0357513427734	-1221.604248046875	1012.469970703125	-238.7995147705078	-1060.849487304688	836.7128295898438	-198.4603424072266	-1143.443603515625	808.0947265625	-171.8204345703125	-1174.59716796875	977.2303466796875	-181.3105010986328	-1048.279663085938	677.512939453125	-199.7530517578125	-1046.02392578125	743.3925170898438	-173.2029724121094	-1116.41357421875	736.2811889648438	-166.7201843261719	-1166.135131835938	1532.7421875	-356.339599609375	-991.33740234375	1594.903564453125	-433.2243347167969	-1045.588134765625	1588.936279296875	-317.8094177246094	-1111.68359375	1535.71142578125	-505.8168640136719	-986.224609375	898.3975830078125	-572.1356811523438	-1157.23583984375	876.0748901367188	-236.4339141845703	-1035.303588867188	918.9823608398438	-249.5054321289062	-933.0384521484375	932.10986328125	-468.7677307128906	-994.9493408203125	475.326416015625	-539.4338989257812	-974.1801147460938	632.8778686523438	-552.4005126953125	-1084.693603515625	51.04299926757812	-571.3038330078125	-1023.451538085938	325.5135192871094	-556.954345703125	-926.780029296875	39.70597076416016	-439.6764526367188	-1011.402221679688	42.78339385986328	-440.4888000488281	-980.274658203125	46.80350494384766	-536.5258178710938	-1152.620727539062	45.96199798583984	-533.5704956054688	-1148.025268554688	488.09130859375	-257.6925354003906	-1137.966552734375	748.0798950195312	-220.2920074462891	-1185.06396484375	46.31186676025391	-300.6773986816406	-1143.185546875	343.618408203125	-270.5005798339844	-980.4967041015625	48.66518402099609	-289.8548278808594	-1036.082275390625	55.33932876586914	-341.0350036621094	-1078.780517578125	43.22030639648438	-254.0648040771484	-1220.881103515625	38.69447708129883	-362.5343933105469	
91	0.9	-1195.371337890625	975.9192504882812	-392.15869140625	-1136.314697265625	972.8673706054688	-500.8470153808594	-1180.114501953125	1032.0263671875	-453.7530212402344	-977.111328125	1210.400268554688	-373.9346008300781	-1200.043701171875	1138.151977539062	-456.906494140625	-1166.611938476562	1370.39990234375	-441.9888305664062	-1014.73681640625	1303.7412109375	-389.0198669433594	-1233.875610351562	1246.27490234375	-375.4663696289062	-1157.088989257812	1315.087280273438	-531.1543579101562	-1045.306640625	1366.41064453125	-569.9360961914062	-1031.408203125	1239.674438476562	-629.4244384765625	-1006.912048339844	1029.951416015625	-645.2820434570312	-1097.748901367188	1019.397216796875	-607.7997436523438	-931.7957153320312	845.989501953125	-579.4107666015625	-991.5255126953125	808.0042114257812	-640.2074584960938	-988.282470703125	946.8775634765625	-639.958740234375	-926.6281127929688	689.0805053710938	-563.76123046875	-968.859619140625	754.1506958007812	-627.3937377929688	-913.319091796875	767.882080078125	-592.54345703125	-1164.573608398438	1368.257934570312	-283.3534545898438	-1195.901123046875	1299.810302734375	-233.3544921875	-1181.561279296875	1031.179565429688	-189.1020812988281	-1221.315673828125	1012.510620117188	-238.8511352539062	-1060.605346679688	836.7286376953125	-198.6522064208984	-1143.15283203125	808.1019287109375	-171.9557342529297	-1174.308715820312	977.2726440429688	-181.3702239990234	-1048.087768554688	677.5299682617188	-199.9256134033203	-1045.73974609375	743.4076538085938	-173.4087066650391	-1116.158081054688	736.2749633789062	-166.8277587890625	-1165.846069335938	1532.748046875	-356.4267272949219	-991.0825805664062	1594.884887695312	-433.331787109375	-1045.307861328125	1588.921508789062	-317.9469909667969	-1111.435668945312	1535.724243164062	-505.9265747070312	-986.1088256835938	898.4090576171875	-572.2379760742188	-1157.053466796875	876.0951538085938	-236.4983062744141	-1035.105712890625	918.9844360351562	-249.6932373046875	-932.8024291992188	932.0886840820312	-468.9167175292969	-994.8704223632812	475.3106384277344	-539.4730224609375	-974.1343383789062	632.8818969726562	-552.4839477539062	-1084.69384765625	51.04253387451172	-571.303955078125	-1023.406982421875	325.477294921875	-556.9585571289062	-926.7809448242188	39.69526672363281	-439.66943359375	-1011.40087890625	42.77874755859375	-440.4839172363281	-980.2265625	46.82772064208984	-536.4939575195312	-1152.620361328125	45.96057891845703	-533.564453125	-1147.908569335938	488.1087951660156	-257.7591552734375	-1137.76513671875	748.07763671875	-220.4447174072266	-1185.051879882812	46.33606719970703	-300.6857604980469	-1143.104858398438	343.6304321289062	-270.5581970214844	-980.4906616210938	48.65194320678711	-289.8644714355469	-1036.0712890625	55.31557464599609	-341.0556335449219	-1078.764770507812	43.22175216674805	-254.0915069580078	-1220.881225585938	38.7032470703125	-362.5387268066406	
92	0.91	-1195.23681640625	975.9180908203125	-392.2431945800781	-1136.15576171875	972.8563842773438	-500.9880676269531	-1180.003662109375	1032.047485351562	-453.8480529785156	-976.8460083007812	1210.396606445312	-374.0811157226562	-1199.80224609375	1138.20166015625	-457.0133361816406	-1166.377563476562	1370.419677734375	-442.06103515625	-1014.525756835938	1303.745239257812	-389.1401062011719	-1233.624145507812	1246.30810546875	-375.5631713867188	-1156.85302734375	1315.118896484375	-531.25439453125	-1045.081298828125	1366.426391601562	-570.0660400390625	-1031.205810546875	1239.685302734375	-629.5677490234375	-1006.68505859375	1029.954711914062	-645.4398803710938	-1097.662475585938	1019.462707519531	-607.9462280273438	-931.7349243164062	845.9346923828125	-579.529052734375	-991.3983764648438	807.9883422851562	-640.3344116210938	-988.1529541015625	946.8695678710938	-640.0726928710938	-926.4035034179688	689.0337524414062	-563.9757080078125	-968.8428344726562	754.1925659179688	-627.5263671875	-913.1827392578125	767.8756103515625	-592.707275390625	-1164.277587890625	1368.292358398438	-283.45654296875	-1195.587280273438	1299.846069335938	-233.4405670166016	-1181.250610351562	1031.206176757812	-189.17822265625	-1221.04052734375	1012.549743652344	-238.9105987548828	-1060.36865234375	836.745361328125	-198.8397979736328	-1142.877075195312	808.1116943359375	-172.0886383056641	-1174.029418945312	977.3106079101562	-181.4412384033203	-1047.900634765625	677.5457763671875	-200.0946807861328	-1045.450561523438	743.42724609375	-173.6290588378906	-1115.9150390625	736.2713623046875	-166.9359588623047	-1165.546020507812	1532.76171875	-356.5144653320312	-990.7922973632812	1594.8603515625	-433.4519348144531	-1045.007202148438	1588.905151367188	-318.0909118652344	-1111.187866210938	1535.748901367188	-506.0287780761719	-985.9749145507812	898.4163818359375	-572.3524169921875	-1156.865600585938	876.1155395507812	-236.5757598876953	-1034.927001953125	918.9864501953125	-249.8583068847656	-932.5719604492188	932.056396484375	-469.0453796386719	-994.7989501953125	475.287841796875	-539.5170288085938	-974.0631713867188	632.8955078125	-552.5712890625	-1084.693725585938	51.04129409790039	-571.3038940429688	-1023.358947753906	325.4425354003906	-556.9615478515625	-926.7809448242188	39.68230056762695	-439.6622009277344	-1011.400390625	42.77361679077148	-440.4786071777344	-980.1881103515625	46.84301376342773	-536.4743041992188	-1152.619750976562	45.95880126953125	-533.5582275390625	-1147.790771484375	488.1240234375	-257.8306579589844	-1137.563598632812	748.07763671875	-220.6050567626953	-1185.042846679688	46.36032485961914	-300.6930236816406	-1143.02685546875	343.6429138183594	-270.6145629882812	-980.4846801757812	48.64001846313477	-289.8741760253906	-1036.062133789062	55.29291915893555	-341.0754699707031	-1078.74951171875	43.22352981567383	-254.1167297363281	-1220.880249023438	38.71115875244141	-362.5440673828125	
93	0.92	-1195.104858398438	975.92236328125	-392.32421875	-1135.997192382812	972.8466796875	-501.1302490234375	-1179.869750976562	1032.061401367188	-453.9662170410156	-976.5486450195312	1210.3974609375	-374.2365112304688	-1199.550048828125	1138.255126953125	-457.1360778808594	-1166.131713867188	1370.440185546875	-442.1482849121094	-1014.297912597656	1303.751953125	-389.274658203125	-1233.367431640625	1246.345703125	-375.6584167480469	-1156.60546875	1315.153442382812	-531.361572265625	-1044.82861328125	1366.441528320312	-570.1937255859375	-1031.00390625	1239.699340820312	-629.7177124023438	-1006.459533691406	1029.963745117188	-645.5843505859375	-1097.606323242188	1019.541625976562	-608.0841064453125	-931.6685791015625	845.8674926757812	-579.6424560546875	-991.2330322265625	807.9495239257812	-640.4605712890625	-988.0354614257812	946.8574829101562	-640.1705322265625	-926.1937255859375	688.9859008789062	-564.1974487304688	-968.8043212890625	754.18798828125	-627.6488037109375	-913.123291015625	767.8525390625	-592.8406372070312	-1163.974243164062	1368.325439453125	-283.5659484863281	-1195.276000976562	1299.875732421875	-233.5373687744141	-1180.947631835938	1031.231323242188	-189.2649536132812	-1220.782348632812	1012.587219238281	-238.9742889404297	-1060.137939453125	836.7620239257812	-199.0247497558594	-1142.617553710938	808.1243286132812	-172.2183685302734	-1173.758911132812	977.343994140625	-181.5244140625	-1047.712158203125	677.5587158203125	-200.2630310058594	-1045.164184570312	743.44970703125	-173.8563537597656	-1115.684448242188	736.2723388671875	-167.0478973388672	-1165.233154296875	1532.782592773438	-356.6058349609375	-990.4683227539062	1594.8291015625	-433.5844116210938	-1044.686767578125	1588.88671875	-318.2384948730469	-1110.940673828125	1535.783813476562	-506.12353515625	-985.8231201171875	898.4199829101562	-572.4790649414062	-1156.671264648438	876.1348876953125	-236.6710968017578	-1034.767211914062	918.9878540039062	-249.9993286132812	-932.3528442382812	932.0130004882812	-469.1531677246094	-994.7329711914062	475.2587585449219	-539.5662841796875	-973.9574584960938	632.9183349609375	-552.6609497070312	-1084.693481445312	51.03987884521484	-571.3037109375	-1023.307922363281	325.4078674316406	-556.9637451171875	-926.7798461914062	39.66709899902344	-439.6544799804688	-1011.400939941406	42.76777648925781	-440.4728698730469	-980.1669311523438	46.8458366394043	-536.469482421875	-1152.619384765625	45.95714950561523	-533.55126953125	-1147.671752929688	488.1371154785156	-257.9065551757812	-1137.365844726562	748.0805053710938	-220.7679138183594	-1185.036743164062	46.38395309448242	-300.6997985839844	-1142.950561523438	343.6551513671875	-270.6705322265625	-980.4786376953125	48.6288948059082	-289.8843078613281	-1036.054565429688	55.27099990844727	-341.0952758789062	-1078.734985351562	43.22630310058594	-254.1399688720703	-1220.8779296875	38.71843338012695	-362.5509033203125	
